<svg width="41" height="50" viewBox="0 0 41 50" fill="none" xmlns="http://www.w3.org/2000/svg">
<path d="M1.03187 45.6429C0.799447 45.6429 0.576544 45.5505 0.412196 45.3862C0.247848 45.2218 0.155518 44.9989 0.155518 44.7665V4.45428C0.156886 3.29258 0.618974 2.17885 1.44042 1.35741C2.26186 0.535967 3.37559 0.0738781 4.53728 0.0725098H39.5914C39.8238 0.0725098 40.0467 0.16484 40.2111 0.329188C40.3754 0.493536 40.4678 0.716439 40.4678 0.948863V41.2611C40.4678 41.4935 40.3754 41.7164 40.2111 41.8808C40.0467 42.0451 39.8238 42.1375 39.5914 42.1375C39.359 42.1375 39.1361 42.0451 38.9717 41.8808C38.8074 41.7164 38.715 41.4935 38.715 41.2611V1.82522H4.53728C3.84025 1.82598 3.17198 2.10322 2.6791 2.59609C2.18622 3.08897 1.90899 3.75724 1.90822 4.45428V44.7665C1.90822 44.9989 1.81589 45.2218 1.65155 45.3862C1.4872 45.5505 1.26429 45.6429 1.03187 45.6429Z" fill="#17BAB5"/>
<path d="M39.5914 49.1484H4.53728C3.37517 49.1484 2.26065 48.6868 1.43891 47.865C0.617166 47.0433 0.155518 45.9288 0.155518 44.7667C0.155518 43.6045 0.617166 42.49 1.43891 41.6683C2.26065 40.8465 3.37517 40.3849 4.53728 40.3849H39.5914C39.8238 40.3849 40.0467 40.4772 40.2111 40.6416C40.3754 40.8059 40.4678 41.0288 40.4678 41.2612V48.2721C40.4678 48.5045 40.3754 48.7274 40.2111 48.8917C40.0467 49.0561 39.8238 49.1484 39.5914 49.1484ZM4.53728 42.1376C3.84001 42.1376 3.1713 42.4146 2.67826 42.9076C2.18521 43.4007 1.90822 44.0694 1.90822 44.7667C1.90822 45.4639 2.18521 46.1326 2.67826 46.6257C3.1713 47.1187 3.84001 47.3957 4.53728 47.3957H38.715V42.1376H4.53728Z" fill="#17BAB5"/>
<path d="M34.3334 8.83657H11.5482C11.3158 8.83657 11.0929 8.74424 10.9286 8.57989C10.7642 8.41554 10.6719 8.19264 10.6719 7.96022C10.6719 7.72779 10.7642 7.50489 10.9286 7.34054C11.0929 7.17619 11.3158 7.08386 11.5482 7.08386H34.3334C34.5658 7.08386 34.7887 7.17619 34.9531 7.34054C35.1174 7.50489 35.2098 7.72779 35.2098 7.96022C35.2098 8.19264 35.1174 8.41554 34.9531 8.57989C34.7887 8.74424 34.5658 8.83657 34.3334 8.83657Z" fill="#17BAB5"/>
<path d="M30.828 12.3408H15.0536C14.8212 12.3408 14.5983 12.2485 14.4339 12.0842C14.2696 11.9198 14.1772 11.6969 14.1772 11.4645C14.1772 11.2321 14.2696 11.0092 14.4339 10.8448C14.5983 10.6805 14.8212 10.5881 15.0536 10.5881H30.828C31.0604 10.5881 31.2833 10.6805 31.4476 10.8448C31.612 11.0092 31.7043 11.2321 31.7043 11.4645C31.7043 11.6969 31.612 11.9198 31.4476 12.0842C31.2833 12.2485 31.0604 12.3408 30.828 12.3408Z" fill="#17BAB5"/>
<path d="M6.28993 42.1374C6.0575 42.1374 5.8346 42.0451 5.67025 41.8808C5.5059 41.7164 5.41357 41.4935 5.41357 41.2611V0.948863C5.41357 0.716439 5.5059 0.493536 5.67025 0.329188C5.8346 0.16484 6.0575 0.0725098 6.28993 0.0725098C6.52235 0.0725098 6.74525 0.16484 6.9096 0.329188C7.07395 0.493536 7.16628 0.716439 7.16628 0.948863V41.2611C7.16628 41.4935 7.07395 41.7164 6.9096 41.8808C6.74525 42.0451 6.52235 42.1374 6.28993 42.1374Z" fill="#17BAB5"/>
<path d="M39.5914 45.6419H4.53724C4.30482 45.6419 4.08191 45.5495 3.91757 45.3852C3.75322 45.2208 3.66089 44.9979 3.66089 44.7655C3.66089 44.5331 3.75322 44.3102 3.91757 44.1458C4.08191 43.9815 4.30482 43.8892 4.53724 43.8892H39.5914C39.8238 43.8892 40.0467 43.9815 40.211 44.1458C40.3754 44.3102 40.4677 44.5331 40.4677 44.7655C40.4677 44.9979 40.3754 45.2208 40.211 45.3852C40.0467 45.5495 39.8238 45.6419 39.5914 45.6419Z" fill="#17BAB5"/>
<path d="M27.3225 35.1264H18.559C18.3266 35.1264 18.1037 35.0341 17.9393 34.8698C17.775 34.7054 17.6827 34.4825 17.6827 34.2501V30.9518L16.0224 27.6313C15.9616 27.5095 15.9299 27.3753 15.9299 27.2393C15.9299 27.1032 15.9616 26.969 16.0224 26.8473L21.2805 16.331C21.3533 16.1855 21.4652 16.0631 21.6037 15.9775C21.7421 15.892 21.9017 15.8467 22.0644 15.8467H23.8171C23.9799 15.8467 24.1394 15.892 24.2779 15.9775C24.4163 16.0631 24.5282 16.1855 24.601 16.331L29.8591 26.8473C29.92 26.969 29.9516 27.1032 29.9516 27.2393C29.9516 27.3753 29.92 27.5095 29.8591 27.6313L28.1989 30.9518V34.2501C28.1989 34.4825 28.1066 34.7054 27.9422 34.8698C27.7779 35.0341 27.555 35.1264 27.3225 35.1264ZM19.4354 33.3737H26.4462V30.7447C26.4462 30.6086 26.4778 30.4744 26.5386 30.3527L28.0953 27.2393L23.2754 17.5994H22.6062L17.7862 27.2393L19.3429 30.3527C19.4037 30.4744 19.4354 30.6086 19.4354 30.7447V33.3737Z" fill="#17BAB5"/>
<path d="M27.3225 31.6207H18.559C18.3265 31.6207 18.1036 31.5284 17.9393 31.3641C17.7749 31.1997 17.6826 30.9768 17.6826 30.7444C17.6826 30.512 17.7749 30.2891 17.9393 30.1247C18.1036 29.9604 18.3265 29.868 18.559 29.868H27.3225C27.5549 29.868 27.7778 29.9604 27.9422 30.1247C28.1065 30.2891 28.1989 30.512 28.1989 30.7444C28.1989 30.9768 28.1065 31.1997 27.9422 31.3641C27.7778 31.5284 27.5549 31.6207 27.3225 31.6207Z" fill="#17BAB5"/>
<path d="M22.9408 24.6102C22.7084 24.6102 22.4855 24.5179 22.3211 24.3535C22.1568 24.1892 22.0645 23.9663 22.0645 23.7339V16.723C22.0645 16.4906 22.1568 16.2677 22.3211 16.1034C22.4855 15.939 22.7084 15.8467 22.9408 15.8467C23.1732 15.8467 23.3961 15.939 23.5605 16.1034C23.7248 16.2677 23.8172 16.4906 23.8172 16.723V23.7339C23.8172 23.9663 23.7248 24.1892 23.5605 24.3535C23.3961 24.5179 23.1732 24.6102 22.9408 24.6102Z" fill="#17BAB5"/>
<path d="M22.9408 28.1159C22.4208 28.1159 21.9125 27.9617 21.4802 27.6728C21.0479 27.3839 20.7109 26.9733 20.5119 26.4929C20.3129 26.0125 20.2608 25.4839 20.3623 24.9739C20.4637 24.464 20.7141 23.9955 21.0818 23.6278C21.4495 23.2601 21.9179 23.0097 22.4279 22.9083C22.9379 22.8069 23.4665 22.8589 23.9469 23.0579C24.4273 23.2569 24.8379 23.5939 25.1268 24.0262C25.4157 24.4586 25.5699 24.9669 25.5699 25.4868C25.5691 26.1839 25.2919 26.8522 24.799 27.345C24.3061 27.8379 23.6379 28.1151 22.9408 28.1159ZM22.9408 24.6105C22.7675 24.6105 22.5981 24.6619 22.454 24.7582C22.3098 24.8545 22.1975 24.9914 22.1312 25.1515C22.0649 25.3116 22.0475 25.4878 22.0813 25.6578C22.1151 25.8278 22.1986 25.984 22.3212 26.1065C22.4437 26.2291 22.5999 26.3125 22.7699 26.3464C22.9399 26.3802 23.1161 26.3628 23.2762 26.2965C23.4363 26.2302 23.5732 26.1178 23.6695 25.9737C23.7658 25.8296 23.8172 25.6602 23.8172 25.4868C23.817 25.2545 23.7247 25.0316 23.5603 24.8673C23.396 24.703 23.1732 24.6106 22.9408 24.6105Z" fill="#17BAB5"/>
</svg>
