<svg width="98" height="23" viewBox="0 0 98 23" fill="none" xmlns="http://www.w3.org/2000/svg">
<path d="M61.4226 21.9546C55.632 21.9546 50.9381 17.2639 50.9381 11.4773C50.9381 5.69065 55.632 1 61.4226 1C67.2133 1 71.9072 5.69065 71.9072 11.4773C71.9072 17.2639 67.2133 21.9546 61.4226 21.9546Z" stroke="white" stroke-width="0.4321" stroke-miterlimit="10"/>
<path d="M66.9922 8.66263C66.8568 8.15748 66.4641 7.76509 65.9631 7.62978C65.056 7.38623 61.4182 7.38623 61.4182 7.38623C61.4182 7.38623 57.7804 7.38623 56.8732 7.62978C56.3722 7.76509 55.9796 8.16199 55.8442 8.66263C55.6005 9.5737 55.6005 11.477 55.6005 11.477C55.6005 11.477 55.6005 13.3803 55.8442 14.2914C55.9796 14.7966 56.3722 15.1889 56.8732 15.3243C57.7804 15.5678 61.4182 15.5678 61.4182 15.5678C61.4182 15.5678 65.056 15.5678 65.9631 15.3243C66.4641 15.1889 66.8568 14.792 66.9922 14.2914C67.2359 13.3803 67.2359 11.477 67.2359 11.477C67.2359 11.477 67.2359 9.5737 66.9922 8.66263ZM60.2312 13.2044V9.7496L63.2687 11.477L60.2312 13.2044Z" fill="white"/>
<path d="M86.3918 21.9546C80.6011 21.9546 75.9072 17.2639 75.9072 11.4773C75.9072 5.69065 80.6011 1 86.3918 1C92.1824 1 96.8763 5.69065 96.8763 11.4773C96.8808 17.2594 92.1824 21.9546 86.3918 21.9546Z" stroke="white" stroke-width="0.4321" stroke-miterlimit="10"/>
<path d="M83.8416 9.39795H81.9189V15.6086H83.8416V9.39795Z" fill="white"/>
<path d="M82.8714 8.58612C83.4987 8.58612 84.0087 8.07196 84.0087 7.44052C84.0087 6.80909 83.4987 6.29492 82.8714 6.29492C82.244 6.29492 81.734 6.80909 81.734 7.44052C81.734 8.07196 82.244 8.58612 82.8714 8.58612Z" fill="white"/>
<path d="M86.9198 12.3476C86.9198 11.4726 87.3215 10.954 88.0933 10.954C88.8019 10.954 89.1404 11.4546 89.1404 12.3476C89.1404 13.2407 89.1404 15.6085 89.1404 15.6085H91.0541C91.0541 15.6085 91.0541 13.3399 91.0541 11.6756C91.0541 10.0113 90.1108 9.2085 88.7929 9.2085C87.475 9.2085 86.9198 10.2368 86.9198 10.2368V9.39793H85.0739V15.6085H86.9198C86.9198 15.6085 86.9198 13.3038 86.9198 12.3476Z" fill="white"/>
<path d="M11.4845 21.9546C5.6939 21.9546 1 17.2639 1 11.4773C1 5.69065 5.6939 1 11.4845 1C17.2752 1 21.9691 5.69065 21.9691 11.4773C21.9691 17.2639 17.2752 21.9546 11.4845 21.9546Z" stroke="white" stroke-width="0.4321" stroke-miterlimit="10"/>
<path d="M10.0674 17.0927H12.3286V11.4278H13.9083L14.0753 9.53352H12.3286C12.3286 9.53352 12.3286 8.82542 12.3286 8.45558C12.3286 8.00906 12.4189 7.83316 12.8521 7.83316C13.1997 7.83316 14.0753 7.83316 14.0753 7.83316V5.8667C14.0753 5.8667 12.7844 5.8667 12.5091 5.8667C10.8256 5.8667 10.0674 6.60638 10.0674 8.0271C10.0674 9.26291 10.0674 9.53804 10.0674 9.53804H8.8894V11.4594H10.0674V17.0927Z" fill="white"/>
<path d="M36.4535 21.9546C30.6629 21.9546 25.969 17.2639 25.969 11.4773C25.969 5.69065 30.6629 1 36.4535 1C42.2442 1 46.9381 5.69065 46.9381 11.4773C46.9381 17.2639 42.2442 21.9546 36.4535 21.9546Z" stroke="white" stroke-width="0.4321" stroke-miterlimit="10"/>
<path d="M36.4535 7.3007C37.8165 7.3007 37.9745 7.30521 38.5116 7.33228C39.0081 7.35483 39.2789 7.43601 39.4594 7.50818C39.6986 7.59838 39.8656 7.71114 40.0461 7.88704C40.2267 8.06744 40.335 8.23432 40.4252 8.47337C40.4929 8.65378 40.5787 8.92439 40.6013 9.42052C40.6238 9.95724 40.6329 10.1196 40.6329 11.4772C40.6329 12.8393 40.6283 12.9971 40.6013 13.5339C40.5787 14.03 40.4975 14.3006 40.4252 14.481C40.335 14.72 40.2221 14.8869 40.0461 15.0673C39.8656 15.2477 39.6986 15.356 39.4594 15.4462C39.2789 15.5139 39.0081 15.5995 38.5116 15.6221C37.9745 15.6446 37.812 15.6537 36.4535 15.6537C35.0905 15.6537 34.9325 15.6492 34.3954 15.6221C33.8989 15.5995 33.6281 15.5184 33.4476 15.4462C33.2084 15.356 33.0414 15.2432 32.8609 15.0673C32.6803 14.8869 32.572 14.72 32.4817 14.481C32.414 14.3006 32.3283 14.03 32.3057 13.5339C32.2831 12.9971 32.2741 12.8348 32.2741 11.4772C32.2741 10.1151 32.2786 9.95724 32.3057 9.42052C32.3283 8.92439 32.4095 8.65378 32.4817 8.47337C32.5765 8.23432 32.6848 8.06744 32.8609 7.88704C33.0414 7.70663 33.2084 7.59838 33.4476 7.50818C33.6281 7.44052 33.8989 7.35483 34.3954 7.33228C34.9325 7.30521 35.0905 7.3007 36.4535 7.3007ZM36.4535 6.38062C35.0679 6.38062 34.8964 6.38513 34.3503 6.41219C33.8087 6.43474 33.4386 6.52494 33.1136 6.64672C32.7796 6.77752 32.4953 6.94891 32.2109 7.23305C31.9266 7.5172 31.7551 7.80134 31.6242 8.1351C31.4978 8.45984 31.4121 8.82968 31.385 9.3709C31.3579 9.91213 31.3534 10.088 31.3534 11.4727C31.3534 12.8573 31.3579 13.0287 31.385 13.5744C31.4076 14.1157 31.4978 14.4855 31.6242 14.8103C31.7551 15.144 31.9266 15.4282 32.2109 15.7123C32.4953 15.9964 32.7796 16.1678 33.1136 16.2986C33.4386 16.4249 33.8087 16.5106 34.3503 16.5377C34.8919 16.5602 35.0679 16.5692 36.4535 16.5692C37.8391 16.5692 38.0106 16.5647 38.5567 16.5377C39.0983 16.5151 39.4684 16.4249 39.7934 16.2986C40.1274 16.1678 40.4117 15.9964 40.6961 15.7123C40.9804 15.4282 41.1519 15.144 41.2828 14.8103C41.4092 14.4855 41.4949 14.1157 41.522 13.5744C41.5446 13.0332 41.5536 12.8573 41.5536 11.4727C41.5536 10.088 41.5491 9.91664 41.522 9.3709C41.4994 8.82968 41.4092 8.45984 41.2828 8.1351C41.1519 7.80134 40.9804 7.5172 40.6961 7.23305C40.4117 6.94891 40.1274 6.77752 39.7934 6.64672C39.4684 6.52043 39.0983 6.43474 38.5567 6.41219C38.0106 6.38513 37.8391 6.38062 36.4535 6.38062Z" fill="white"/>
<path d="M36.4534 8.86133C35.0092 8.86133 33.8357 10.034 33.8357 11.4773C33.8357 12.9205 35.0092 14.0932 36.4534 14.0932C37.8977 14.0932 39.0712 12.9205 39.0712 11.4773C39.0712 10.034 37.8977 8.86133 36.4534 8.86133ZM36.4534 13.1731C35.5147 13.1731 34.7564 12.4109 34.7564 11.4773C34.7564 10.5391 35.5192 9.78142 36.4534 9.78142C37.3922 9.78142 38.1505 10.5436 38.1505 11.4773C38.1505 12.4109 37.3922 13.1731 36.4534 13.1731Z" fill="white"/>
<path d="M39.7844 8.75744C39.7844 9.0957 39.5091 9.37083 39.1706 9.37083C38.8321 9.37083 38.5568 9.0957 38.5568 8.75744C38.5568 8.41917 38.8321 8.14404 39.1706 8.14404C39.5136 8.14404 39.7844 8.41917 39.7844 8.75744Z" fill="white"/>
</svg>
