<svg width="16" height="17" viewBox="0 0 16 17" fill="none" xmlns="http://www.w3.org/2000/svg">
<path d="M13.1364 6.32012V6.60114C13.2961 6.58865 13.6923 6.59659 14.1122 6.71563V6.32012C14.1122 2.94988 11.3703 0.208008 8.00005 0.208008C4.62978 0.208008 1.88794 2.94988 1.88794 6.32012V6.71563C2.239 6.6161 2.63353 6.58312 2.86369 6.60114V6.32012C2.86369 3.48818 5.16778 1.18376 8.00005 1.18376C10.8323 1.18376 13.1364 3.48818 13.1364 6.32012Z" fill="white"/>
<path d="M13.1363 12.8945C13.1363 14.2532 12.0762 15.1765 10.9054 15.1765H9.76842C9.58648 14.7981 9.19959 14.5369 8.75163 14.5369H7.24818C6.62544 14.5369 6.12061 15.0417 6.12061 15.6645C6.12061 16.2872 6.62544 16.792 7.24818 16.792H8.75163C9.19962 16.792 9.58658 16.5308 9.76848 16.1523H10.9054C12.5458 16.1523 14.112 14.8982 14.112 12.7784C13.7256 12.8893 13.3361 12.911 13.1363 12.8945Z" fill="white"/>
<path d="M2.75014 7.573C1.49926 7.573 0.511278 8.61961 0.578426 9.86893C0.638909 10.9985 1.57369 11.9008 2.70621 11.9229C3.03717 11.9312 3.23702 11.6899 3.23702 11.4337V8.06252C3.23705 7.80182 3.03242 7.573 2.75014 7.573Z" fill="white"/>
<path d="M13.2419 7.573C12.9741 7.5754 12.7632 7.79581 12.7632 8.06248V11.4337C12.7632 11.6877 12.9609 11.9314 13.2937 11.9229C14.418 11.9014 15.3611 11.006 15.4218 9.86896C15.488 8.63834 14.5238 7.573 13.2419 7.573Z" fill="white"/>
</svg>
