<svg width="66" height="36" viewBox="0 0 66 36" fill="none" xmlns="http://www.w3.org/2000/svg">
<path d="M29.9773 0.23877C29.3292 0.23877 28.8054 0.763758 28.8054 1.41062V34.2224C28.8054 34.8693 29.3292 35.3943 29.9773 35.3943C30.6253 35.3943 31.1491 34.8693 31.1491 34.2224V1.41062C31.1491 0.763758 30.6253 0.23877 29.9773 0.23877Z" fill="#17BAB5"/>
<path d="M25.2898 11.5775C24.6417 11.5775 24.1179 12.1025 24.1179 12.7494V22.1242C24.1179 22.771 24.6417 23.296 25.2898 23.296C25.9378 23.296 26.4616 22.771 26.4616 22.1242V12.7494C26.4616 12.1025 25.9378 11.5775 25.2898 11.5775Z" fill="#17BAB5"/>
<path d="M20.6025 4.01794C19.9545 4.01794 19.4307 4.54293 19.4307 5.18979V30.9705C19.4307 31.6174 19.9545 32.1423 20.6025 32.1423C21.2505 32.1423 21.7744 31.6174 21.7744 30.9705V5.18979C21.7744 4.54293 21.2505 4.01794 20.6025 4.01794Z" fill="#17BAB5"/>
<path d="M15.915 7.7981C15.267 7.7981 14.7432 8.32308 14.7432 8.96995V25.3758C14.7432 26.0227 15.267 26.5477 15.915 26.5477C16.563 26.5477 17.0869 26.0227 17.0869 25.3758V8.96995C17.0869 8.32308 16.563 7.7981 15.915 7.7981Z" fill="#17BAB5"/>
<path d="M11.2275 5.90698C10.5795 5.90698 10.0557 6.43197 10.0557 7.07883V28.1721C10.0557 28.819 10.5795 29.344 11.2275 29.344C11.8755 29.344 12.3994 28.819 12.3994 28.1721V7.07883C12.3994 6.43197 11.8755 5.90698 11.2275 5.90698Z" fill="#17BAB5"/>
<path d="M6.54026 13.4667C5.89223 13.4667 5.36841 13.9917 5.36841 14.6385V19.3259C5.36841 19.9728 5.89223 20.4978 6.54026 20.4978C7.18829 20.4978 7.71211 19.9728 7.71211 19.3259V14.6385C7.71211 13.9917 7.18829 13.4667 6.54026 13.4667Z" fill="#17BAB5"/>
<path d="M1.85276 15.3557C1.20473 15.3557 0.680908 15.8807 0.680908 16.5276V18.8713C0.680908 19.5181 1.20473 20.0431 1.85276 20.0431C2.50079 20.0431 3.02461 19.5181 3.02461 18.8713V16.5276C3.02461 15.8807 2.50079 15.3557 1.85276 15.3557Z" fill="#17BAB5"/>
<path d="M63.274 0.23877H35.1496C33.8571 0.23877 32.8059 1.28992 32.8059 2.58247V28.3632C32.8059 29.6557 33.8571 30.7069 35.1496 30.7069H45.1103L48.2743 34.9255C48.4946 35.2208 48.8427 35.3943 49.2118 35.3943C49.5798 35.3943 49.9278 35.2208 50.1493 34.9255L53.3133 30.7069H63.274C64.5654 30.7069 65.6177 29.6557 65.6177 28.3632V2.58247C65.6177 1.28992 64.5654 0.23877 63.274 0.23877ZM63.274 28.3632H52.7274C52.3582 28.3632 52.0114 28.5366 51.7899 28.8319L49.2118 32.2689L46.6337 28.8319C46.4123 28.5366 46.0642 28.3632 45.6963 28.3632H35.1496V2.58247H63.274V28.3632Z" fill="#17BAB5"/>
<path d="M38.6653 9.61421H46.8682C47.5162 9.61421 48.0401 9.08922 48.0401 8.44236C48.0401 7.7955 47.5162 7.27051 46.8682 7.27051H38.6653C38.0172 7.27051 37.4934 7.7955 37.4934 8.44236C37.4934 9.08922 38.0172 9.61421 38.6653 9.61421Z" fill="#17BAB5"/>
<path d="M38.6653 14.3007H39.8371C40.4851 14.3007 41.009 13.7757 41.009 13.1289C41.009 12.482 40.4851 11.957 39.8371 11.957H38.6653C38.0172 11.957 37.4934 12.482 37.4934 13.1289C37.4934 13.7757 38.0172 14.3007 38.6653 14.3007Z" fill="#17BAB5"/>
<path d="M38.6653 18.9884H59.7586C60.4066 18.9884 60.9304 18.4634 60.9304 17.8165C60.9304 17.1696 60.4066 16.6447 59.7586 16.6447H38.6653C38.0172 16.6447 37.4934 17.1696 37.4934 17.8165C37.4934 18.4634 38.0172 18.9884 38.6653 18.9884Z" fill="#17BAB5"/>
<path d="M38.6653 23.676H55.0712C55.7192 23.676 56.243 23.151 56.243 22.5041C56.243 21.8573 55.7192 21.3323 55.0712 21.3323H38.6653C38.0172 21.3323 37.4934 21.8573 37.4934 22.5041C37.4934 23.151 38.0172 23.676 38.6653 23.676Z" fill="#17BAB5"/>
<path d="M43.3525 13.1289C43.3525 13.7757 43.8764 14.3007 44.5244 14.3007H59.7584C60.4065 14.3007 60.9303 13.7757 60.9303 13.1289C60.9303 12.482 60.4065 11.957 59.7584 11.957H44.5244C43.8764 11.957 43.3525 12.482 43.3525 13.1289Z" fill="#17BAB5"/>
</svg>
