<svg width="76" height="75" viewBox="0 0 76 75" fill="none" xmlns="http://www.w3.org/2000/svg">
<g filter="url(#filter0_ddddd_1996_81)">
<circle cx="38" cy="29" r="28" fill="url(#paint0_linear_1996_81)"/>
</g>
<path d="M46.8368 15H27.3569C25.5029 15 24 16.5029 24 18.3569V34.0001C24 35.8541 25.5029 37.357 27.3569 37.357C27.6221 37.357 27.8371 37.572 27.8371 37.8372V40.6435H28.5289L31.1991 38.0825C31.4826 37.8107 31.8456 37.6368 32.2352 37.5863L34.0033 37.357H35.5522C35.5521 37.357 35.5521 37.357 35.5521 37.357H46.8367C48.6907 37.357 50.1936 35.8541 50.1936 34.0001V18.3569C50.1936 16.503 48.6907 15.0001 46.8368 15Z" fill="white"/>
<path d="M49.2982 15H46.145C47.999 15 49.502 16.5029 49.502 18.3569V34.0001C49.502 35.8541 47.999 37.357 46.145 37.357H49.2982C51.1522 37.357 52.6551 35.8541 52.6551 34.0001V18.3569C52.6551 16.5029 51.1522 15 49.2982 15Z" fill="#EDEDED"/>
<path d="M30.9438 37.664L27.8372 40.6435V42.5018C27.8372 42.9398 28.3625 43.1638 28.6786 42.8606L34.0969 37.664C34.3023 37.4671 34.5758 37.3571 34.8604 37.3571H31.7072C31.4227 37.3571 31.1491 37.467 30.9438 37.664Z" fill="#EDEDED"/>
<path d="M48.3386 21.4633H33.1424C32.9035 21.4633 32.71 21.2697 32.71 21.0309C32.71 20.7921 32.9035 20.5985 33.1424 20.5985H48.3386C48.5775 20.5985 48.771 20.7921 48.771 21.0309C48.771 21.2697 48.5775 21.4633 48.3386 21.4633Z" fill="#17C3BD"/>
<path d="M48.3386 26.0505H28.3164C28.0776 26.0505 27.884 25.8569 27.884 25.6181C27.884 25.3793 28.0776 25.1857 28.3164 25.1857H48.3386C48.5774 25.1857 48.771 25.3793 48.771 25.6181C48.771 25.8569 48.5774 26.0505 48.3386 26.0505Z" fill="#17C3BD"/>
<path d="M48.3386 30.6377H28.3164C28.0776 30.6377 27.884 30.4442 27.884 30.2053C27.884 29.9665 28.0776 29.7729 28.3164 29.7729H48.3386C48.5774 29.7729 48.771 29.9665 48.771 30.2053C48.771 30.4441 48.5774 30.6377 48.3386 30.6377Z" fill="#17C3BD"/>
<defs>
<filter id="filter0_ddddd_1996_81" x="0" y="0" width="76" height="92" filterUnits="userSpaceOnUse" color-interpolation-filters="sRGB">
<feFlood flood-opacity="0" result="BackgroundImageFix"/>
<feColorMatrix in="SourceAlpha" type="matrix" values="0 0 0 0 0 0 0 0 0 0 0 0 0 0 0 0 0 0 127 0" result="hardAlpha"/>
<feOffset/>
<feColorMatrix type="matrix" values="0 0 0 0 0 0 0 0 0 0 0 0 0 0 0 0 0 0 0.1 0"/>
<feBlend mode="normal" in2="BackgroundImageFix" result="effect1_dropShadow_1996_81"/>
<feColorMatrix in="SourceAlpha" type="matrix" values="0 0 0 0 0 0 0 0 0 0 0 0 0 0 0 0 0 0 127 0" result="hardAlpha"/>
<feOffset dy="2"/>
<feGaussianBlur stdDeviation="1.5"/>
<feColorMatrix type="matrix" values="0 0 0 0 0 0 0 0 0 0 0 0 0 0 0 0 0 0 0.1 0"/>
<feBlend mode="normal" in2="effect1_dropShadow_1996_81" result="effect2_dropShadow_1996_81"/>
<feColorMatrix in="SourceAlpha" type="matrix" values="0 0 0 0 0 0 0 0 0 0 0 0 0 0 0 0 0 0 127 0" result="hardAlpha"/>
<feOffset dy="6"/>
<feGaussianBlur stdDeviation="3"/>
<feColorMatrix type="matrix" values="0 0 0 0 0 0 0 0 0 0 0 0 0 0 0 0 0 0 0.09 0"/>
<feBlend mode="normal" in2="effect2_dropShadow_1996_81" result="effect3_dropShadow_1996_81"/>
<feColorMatrix in="SourceAlpha" type="matrix" values="0 0 0 0 0 0 0 0 0 0 0 0 0 0 0 0 0 0 127 0" result="hardAlpha"/>
<feOffset dy="14"/>
<feGaussianBlur stdDeviation="4"/>
<feColorMatrix type="matrix" values="0 0 0 0 0 0 0 0 0 0 0 0 0 0 0 0 0 0 0.05 0"/>
<feBlend mode="normal" in2="effect3_dropShadow_1996_81" result="effect4_dropShadow_1996_81"/>
<feColorMatrix in="SourceAlpha" type="matrix" values="0 0 0 0 0 0 0 0 0 0 0 0 0 0 0 0 0 0 127 0" result="hardAlpha"/>
<feOffset dy="25"/>
<feGaussianBlur stdDeviation="5"/>
<feColorMatrix type="matrix" values="0 0 0 0 0 0 0 0 0 0 0 0 0 0 0 0 0 0 0.01 0"/>
<feBlend mode="normal" in2="effect4_dropShadow_1996_81" result="effect5_dropShadow_1996_81"/>
<feBlend mode="normal" in="SourceGraphic" in2="effect5_dropShadow_1996_81" result="shape"/>
</filter>
<linearGradient id="paint0_linear_1996_81" x1="38" y1="1" x2="38" y2="57" gradientUnits="userSpaceOnUse">
<stop stop-color="#24F3EC"/>
<stop offset="1" stop-color="#0C9B96"/>
</linearGradient>
</defs>
</svg>
