<svg width="41" height="42" viewBox="0 0 41 42" fill="none" xmlns="http://www.w3.org/2000/svg">
<path d="M0.155396 37.1776V38.5841H2.96839V41.3971H4.37489V38.5841H11.4074V41.3971H12.8139V38.5841H19.8464V41.3971H21.2529V38.5841H28.2854V41.3971H29.6918V38.5841H36.7243V41.3971H38.1308V38.5841H40.9438V37.1776H38.1308V30.1451H40.9438V28.7386H38.1308V21.7061H40.9438V20.2996H38.1308V13.2671H40.9438V11.8606H38.1308V4.82814H40.9438V3.42164H38.1308V0.608643H36.7243V3.42164H29.6918V0.608643H28.2854V3.42164H21.2529V0.608643H19.8464V3.42164H12.8139V0.608643H11.4074V3.42164H4.37489V0.608643H2.96839V3.42164H0.155396V4.82814H2.96839V11.8606H0.155396V13.2671H2.96839V20.2996H0.155396V21.7061H2.96839V28.7386H0.155396V30.1451H2.96839V37.1776H0.155396ZM29.6918 4.82814H36.7243V11.8606H29.6918V4.82814ZM29.6918 13.2671H36.7243V20.2996H29.6918V13.2671ZM29.6918 21.7061H36.7243V28.7386H29.6918V21.7061ZM29.6918 30.1451H36.7243V37.1776H29.6918V30.1451ZM28.2854 37.1776H21.2529V30.1451H28.2854V37.1776ZM28.2854 28.7386H21.2529V27.3321H26.1756C26.3621 27.3321 26.541 27.258 26.6729 27.1261C26.8048 26.9942 26.8789 26.8154 26.8789 26.6289V21.7061H28.2854V28.7386ZM21.2529 4.82814H28.2854V11.8606H21.2529V4.82814ZM21.2529 13.2671H28.2854V20.2996H26.8789V15.3769C26.8789 15.1904 26.8048 15.0115 26.6729 14.8796C26.541 14.7477 26.3621 14.6736 26.1756 14.6736H21.2529V13.2671ZM25.4724 16.0801V25.9256H15.6269V16.0801H25.4724ZM12.8139 4.82814H19.8464V11.8606H12.8139V4.82814ZM12.8139 13.2671H19.8464V14.6736H14.9236C14.7371 14.6736 14.5582 14.7477 14.4263 14.8796C14.2945 15.0115 14.2204 15.1904 14.2204 15.3769V20.2996H12.8139V13.2671ZM12.8139 21.7061H14.2204V26.6289C14.2204 26.8154 14.2945 26.9942 14.4263 27.1261C14.5582 27.258 14.7371 27.3321 14.9236 27.3321H19.8464V28.7386H12.8139V21.7061ZM12.8139 30.1451H19.8464V37.1776H12.8139V30.1451ZM4.37489 4.82814H11.4074V11.8606H4.37489V4.82814ZM4.37489 13.2671H11.4074V20.2996H4.37489V13.2671ZM4.37489 21.7061H11.4074V28.7386H4.37489V21.7061ZM4.37489 30.1451H11.4074V37.1776H4.37489V30.1451Z" fill="#17BAB5"/>
<path d="M33.9114 6.23462H32.5049V7.64112H31.0984V9.04761H32.5049V10.4541H33.9114V9.04761H35.3179V7.64112H33.9114V6.23462Z" fill="#17BAB5"/>
<path d="M33.9114 31.5514H32.5049V32.9579H31.0984V34.3644H32.5049V35.7709H33.9114V34.3644H35.3179V32.9579H33.9114V31.5514Z" fill="#17BAB5"/>
<path d="M7.89112 6.23462C7.47385 6.23462 7.06595 6.35835 6.71901 6.59018C6.37206 6.822 6.10165 7.15149 5.94197 7.537C5.78229 7.92251 5.74051 8.34671 5.82191 8.75596C5.90332 9.16521 6.10425 9.54113 6.3993 9.83618C6.69436 10.1312 7.07028 10.3322 7.47953 10.4136C7.88878 10.495 8.31298 10.4532 8.69848 10.2935C9.08399 10.1338 9.41349 9.86342 9.64531 9.51648C9.87713 9.16953 10.0009 8.76163 10.0009 8.34437C10.0009 7.78483 9.77859 7.2482 9.38294 6.85255C8.98728 6.4569 8.45066 6.23462 7.89112 6.23462ZM7.89112 9.04761C7.75203 9.04761 7.61606 9.00637 7.50042 8.9291C7.38477 8.85182 7.29463 8.74199 7.2414 8.61349C7.18818 8.48499 7.17425 8.34359 7.20138 8.20717C7.22852 8.07075 7.2955 7.94544 7.39385 7.84709C7.4922 7.74874 7.61751 7.68176 7.75392 7.65463C7.89034 7.62749 8.03174 7.64142 8.16024 7.69465C8.28874 7.74788 8.39858 7.83801 8.47585 7.95366C8.55312 8.06931 8.59437 8.20528 8.59437 8.34437C8.59437 8.53088 8.52028 8.70975 8.38839 8.84164C8.25651 8.97352 8.07763 9.04761 7.89112 9.04761Z" fill="#17BAB5"/>
<path d="M7.89112 31.5514C7.47385 31.5514 7.06595 31.6751 6.71901 31.9069C6.37206 32.1388 6.10165 32.4683 5.94197 32.8538C5.78229 33.2393 5.74051 33.6635 5.82191 34.0727C5.90332 34.482 6.10425 34.8579 6.3993 35.153C6.69436 35.448 7.07028 35.6489 7.47953 35.7303C7.88878 35.8118 8.31298 35.77 8.69848 35.6103C9.08399 35.4506 9.41349 35.1802 9.64531 34.8333C9.87713 34.4863 10.0009 34.0784 10.0009 33.6611C10.0009 33.1016 9.77859 32.565 9.38294 32.1693C8.98728 31.7737 8.45066 31.5514 7.89112 31.5514ZM7.89112 34.3644C7.75203 34.3644 7.61606 34.3231 7.50042 34.2459C7.38477 34.1686 7.29463 34.0588 7.2414 33.9303C7.18818 33.8018 7.17425 33.6604 7.20138 33.5239C7.22852 33.3875 7.2955 33.2622 7.39385 33.1639C7.4922 33.0655 7.61751 32.9985 7.75392 32.9714C7.89034 32.9443 8.03174 32.9582 8.16024 33.0114C8.28874 33.0646 8.39858 33.1548 8.47585 33.2704C8.55312 33.3861 8.59437 33.522 8.59437 33.6611C8.59437 33.8477 8.52028 34.0265 8.38839 34.1584C8.25651 34.2903 8.07763 34.3644 7.89112 34.3644Z" fill="#17BAB5"/>
<path d="M19.9871 23.8154C20.0927 23.8149 20.1969 23.7907 20.2919 23.7444C20.3868 23.6981 20.4701 23.6311 20.5356 23.5482L23.9112 19.3287L22.8142 18.4567L19.8464 22.1558L18.1375 20.9532L17.3218 22.1065L19.5722 23.6888C19.6937 23.7737 19.8389 23.818 19.9871 23.8154Z" fill="#17BAB5"/>
</svg>
