<svg width="49" height="48" viewBox="0 0 49 48" fill="none" xmlns="http://www.w3.org/2000/svg">
<g clip-path="url(#clip0_1973_123)">
<path d="M37.4683 0.000976562H3.73029C2.08622 0.000976562 0.753418 1.33378 0.753418 2.97785V26.7929C0.753418 28.4369 2.08622 29.7697 3.73029 29.7697H16.6301V27.7852H3.73029C3.18227 27.7852 2.73797 27.3409 2.73797 26.7929V2.97785C2.73797 2.42983 3.18227 1.98553 3.73029 1.98553H37.4683C38.0163 1.98553 38.4606 2.42983 38.4606 2.97785V20.8391H40.4451V2.97785C40.4451 1.33378 39.1123 0.000976562 37.4683 0.000976562Z" fill="#17BAB5"/>
<path d="M14.6454 28.7776H12.6609V34.7313H14.6454V28.7776Z" fill="#17BAB5"/>
<path d="M7.69941 23.8161C7.15139 23.8161 6.70709 23.3718 6.70709 22.8238V20.8392H4.72253V22.8238C4.72253 24.4679 6.05534 25.8007 7.69941 25.8007H9.68396V23.8161H7.69941Z" fill="#17BAB5"/>
<path d="M6.70709 16.8689H4.72253V18.8535H6.70709V16.8689Z" fill="#17BAB5"/>
<path d="M37.0189 21.0197C34.9968 18.9973 32.2541 17.8611 29.3943 17.8612C23.4399 17.8615 18.6132 22.6886 18.6134 28.6429C18.6137 34.5972 23.4408 39.4239 29.3951 39.4237C32.254 39.4237 34.9957 38.2881 37.0175 36.2667C41.2282 32.0567 41.2288 25.2305 37.0189 21.0197ZM29.3891 37.4401C24.5309 37.4384 20.5938 33.4987 20.5954 28.6405C20.5971 23.7822 24.5368 19.8451 29.3951 19.8468C31.7302 19.8405 33.9706 20.7696 35.6157 22.4267C37.264 24.0768 38.1895 26.314 38.1888 28.6464C38.1871 33.5047 34.2474 37.4418 29.3891 37.4401Z" fill="#17BAB5"/>
<path d="M48.0928 43.1648L41.8642 36.9382C41.6781 36.7521 41.4257 36.6475 41.1626 36.6475C40.8995 36.6476 40.6472 36.7521 40.4611 36.9382L37.6926 39.7067C37.3053 40.0941 37.3053 40.7222 37.6926 41.1098L43.9213 47.3394C44.1073 47.5255 44.3597 47.6301 44.6228 47.6301C44.8863 47.6293 45.1388 47.5236 45.3243 47.3364L48.0928 44.5679C48.4802 44.1804 48.4802 43.5522 48.0928 43.1648ZM44.6227 45.2347L39.7972 40.4082L41.1625 39.0428L45.9881 43.8694L44.6227 45.2347Z" fill="#17BAB5"/>
<path d="M37.0186 34.8608L35.6154 36.264L39.0759 39.7246L40.4792 38.3213L37.0186 34.8608Z" fill="#17BAB5"/>
<path d="M29.5298 21.8315V23.8161C32.2686 23.8194 34.488 26.0388 34.4912 28.7775H36.4758C36.4715 24.9432 33.3642 21.8359 29.5298 21.8315Z" fill="#17BAB5"/>
<path d="M18.6147 33.739H10.6764V35.7236H18.6147V33.739Z" fill="#17BAB5"/>
<path d="M15.6378 3.97021C13.9937 3.97021 12.6609 5.30302 12.6609 6.94709C12.6609 8.59116 13.9937 9.92397 15.6378 9.92397C17.2818 9.92397 18.6146 8.59116 18.6146 6.94709C18.6146 5.30302 17.2818 3.97021 15.6378 3.97021ZM15.6378 7.93932C15.0897 7.93932 14.6454 7.49502 14.6454 6.947C14.6454 6.39897 15.0897 5.95468 15.6378 5.95468C16.1858 5.95468 16.6301 6.39897 16.6301 6.947C16.6301 7.49512 16.1858 7.93932 15.6378 7.93932Z" fill="#17BAB5"/>
<path d="M22.5839 10.9152C20.9399 10.9152 19.6071 12.248 19.6071 13.892C19.6071 15.5361 20.9399 16.8689 22.5839 16.8689C24.228 16.8689 25.5608 15.5361 25.5608 13.892C25.5608 12.248 24.228 10.9152 22.5839 10.9152ZM22.5839 14.8844C22.0359 14.8844 21.5916 14.4401 21.5916 13.892C21.5916 13.344 22.0359 12.8997 22.5839 12.8997C23.132 12.8997 23.5763 13.344 23.5763 13.892C23.5762 14.4401 23.132 14.8844 22.5839 14.8844Z" fill="#17BAB5"/>
<path d="M13.9438 7.23639L8.98242 12.1978L10.3857 13.601L15.3471 8.63967L13.9438 7.23639Z" fill="#17BAB5"/>
<path d="M17.3275 7.23906L15.9242 8.64233L20.8856 13.6037L22.2888 12.2004L17.3275 7.23906Z" fill="#17BAB5"/>
<path d="M29.5299 3.97021C27.8858 3.97021 26.553 5.30302 26.553 6.94709C26.553 8.59116 27.8858 9.92397 29.5299 9.92397C31.1739 9.92397 32.5067 8.59116 32.5067 6.94709C32.5068 5.30302 31.174 3.97021 29.5299 3.97021ZM29.5299 7.93932C28.9818 7.93932 28.5375 7.49502 28.5375 6.947C28.5375 6.39897 28.9818 5.95468 29.5299 5.95468C30.0779 5.95468 30.5222 6.39897 30.5222 6.947C30.5222 7.49512 30.0779 7.93932 29.5299 7.93932Z" fill="#17BAB5"/>
<path d="M27.8353 7.24078L22.8739 12.2021L24.2772 13.6054L29.2385 8.64406L27.8353 7.24078Z" fill="#17BAB5"/>
</g>
<defs>
<clipPath id="clip0_1973_123">
<rect width="47.63" height="47.63" fill="white" transform="translate(0.753296)"/>
</clipPath>
</defs>
</svg>
