<svg width="47" height="47" viewBox="0 0 47 47" fill="none" xmlns="http://www.w3.org/2000/svg">
<mask id="mask0_1973_177" style="mask-type:luminance" maskUnits="userSpaceOnUse" x="0" y="0" width="47" height="47">
<path d="M0.0617676 0.0913811H46.9704V47H0.0617676V0.0913811Z" fill="white"/>
</mask>
<g mask="url(#mask0_1973_177)">
<path d="M14.1554 24.0784C12.0249 24.0784 10.2979 22.3513 10.2979 20.2209V20.2202C10.2979 18.0898 12.0249 16.3627 14.1554 16.3627C16.2858 16.3627 18.0129 18.0898 18.0129 20.2202V20.2209C18.0129 22.3513 16.2858 24.0784 14.1554 24.0784Z" stroke="#17BAB5" stroke-width="1.83237" stroke-miterlimit="10" stroke-linecap="round" stroke-linejoin="round"/>
<path d="M44.9959 24.1859C43.6319 21.8698 41.0882 20.3317 38.1907 20.3983C33.9403 20.4961 30.6155 23.966 30.6905 28.2167C30.7246 30.1539 31.4763 31.9152 32.6905 33.2479C34.307 35.0219 35.2178 37.3262 35.2178 39.7261H41.5995C41.5995 37.368 42.4543 34.9976 44.045 33.2568C44.408 32.8596 44.7283 32.4232 45.0023 31.9562" stroke="#17BAB5" stroke-width="1.83237" stroke-miterlimit="10" stroke-linecap="round" stroke-linejoin="round"/>
<path d="M40.3424 44.64H36.4749C35.7806 44.64 35.2178 44.0772 35.2178 43.3829V39.7259H41.5995V43.3829C41.5995 44.0772 41.0367 44.64 40.3424 44.64Z" stroke="#17BAB5" stroke-width="1.83237" stroke-miterlimit="10" stroke-linecap="round" stroke-linejoin="round"/>
<path d="M6.53418 28.4451H26.4089" stroke="#17BAB5" stroke-width="1.83237" stroke-miterlimit="10" stroke-linecap="round" stroke-linejoin="round"/>
<path d="M10.6885 33.3862H27.6205" stroke="#17BAB5" stroke-width="1.83237" stroke-miterlimit="10" stroke-linecap="round" stroke-linejoin="round"/>
<path d="M22.4758 13.6176H32.7646" stroke="#17BAB5" stroke-width="1.83237" stroke-miterlimit="10" stroke-linecap="round" stroke-linejoin="round"/>
<path d="M22.4758 18.5596H30.6892" stroke="#17BAB5" stroke-width="1.83237" stroke-miterlimit="10" stroke-linecap="round" stroke-linejoin="round"/>
<path d="M22.4758 23.5022H27.437" stroke="#17BAB5" stroke-width="1.83237" stroke-miterlimit="10" stroke-linecap="round" stroke-linejoin="round"/>
<path d="M0.978027 7.29199V37.6672C0.978027 38.8133 1.90704 39.7423 3.05318 39.7423L35.2177 39.7258C35.2177 37.3255 34.307 35.0212 32.6908 33.2475C31.476 31.9153 30.7247 30.1535 30.6909 28.2167C30.6157 23.9656 33.9405 20.496 38.1907 20.398C38.264 20.3962 38.3363 20.3953 38.4087 20.3971V7.29199H0.978027Z" stroke="#17BAB5" stroke-width="1.83237" stroke-miterlimit="10" stroke-linecap="round" stroke-linejoin="round"/>
<path d="M38.4087 4.52698C38.4087 3.38074 37.4797 2.45091 36.3337 2.45091H3.05328C1.90704 2.45091 0.978027 3.38074 0.978027 4.52698V7.29285H38.4087V4.52698Z" stroke="#17BAB5" stroke-width="1.83237" stroke-miterlimit="10" stroke-linecap="round" stroke-linejoin="round"/>
<path d="M40.172 39.7261V30.8939C40.172 30.5516 40.2903 30.2198 40.5069 29.9548L41.3228 28.9566C41.5394 28.6916 41.6578 28.3598 41.6578 28.0175C41.6578 27.1981 40.9933 26.5337 40.1739 26.5337H36.743C35.9235 26.5337 35.259 27.1981 35.259 28.0175C35.259 28.3598 35.3774 28.6916 35.594 28.9566L36.4099 29.9548C36.6265 30.2198 36.7448 30.5516 36.7448 30.8939V39.7261" stroke="#17BAB5" stroke-width="1.83237" stroke-miterlimit="10" stroke-linecap="round" stroke-linejoin="round"/>
</g>
</svg>
