<svg width="46" height="46" viewBox="0 0 46 46" fill="none" xmlns="http://www.w3.org/2000/svg">
<g clip-path="url(#clip0_1973_210)">
<path d="M18.7031 28.4709H7.45109C6.9335 28.4709 6.51343 28.0508 6.51343 27.5332C6.51343 27.0157 6.9335 26.5956 7.45109 26.5956H18.7031C19.2207 26.5956 19.6407 27.0157 19.6407 27.5332C19.6407 28.0508 19.2207 28.4709 18.7031 28.4709Z" fill="#17BAB5"/>
<path d="M16.8277 34.0969H7.45109C6.9335 34.0969 6.51343 33.6768 6.51343 33.1592C6.51343 32.6416 6.9335 32.2216 7.45109 32.2216H16.8277C17.3453 32.2216 17.7654 32.6416 17.7654 33.1592C17.7654 33.6768 17.3453 34.0969 16.8277 34.0969Z" fill="#17BAB5"/>
<path d="M16.8278 13.469C14.7593 13.469 13.0771 11.7868 13.0771 9.71831C13.0771 7.64982 14.7593 5.96765 16.8278 5.96765C18.8963 5.96765 20.5785 7.64982 20.5785 9.71831C20.5785 11.7868 18.8963 13.469 16.8278 13.469ZM16.8278 7.84298C15.7945 7.84298 14.9525 8.685 14.9525 9.71831C14.9525 10.7516 15.7945 11.5936 16.8278 11.5936C17.8611 11.5936 18.7031 10.7516 18.7031 9.71831C18.7031 8.685 17.8611 7.84298 16.8278 7.84298Z" fill="#17BAB5"/>
<path d="M23.3914 23.8447C22.8738 23.8447 22.4537 23.4246 22.4537 22.907V21.0317C22.4537 19.4808 21.1916 18.2187 19.6407 18.2187H14.0147C12.4638 18.2187 11.2017 19.4808 11.2017 21.0317V22.907C11.2017 23.4246 10.7817 23.8447 10.2641 23.8447C9.74649 23.8447 9.32642 23.4246 9.32642 22.907V21.0317C9.32642 18.4475 11.4305 16.3434 14.0147 16.3434H19.6407C22.2249 16.3434 24.3291 18.4475 24.3291 21.0317V22.907C24.3291 23.4246 23.909 23.8447 23.3914 23.8447Z" fill="#17BAB5"/>
<path d="M18.7031 39.7232H5.57578C2.99157 39.7232 0.887451 37.6191 0.887451 35.0349V5.02963C0.887451 2.44543 2.99157 0.341309 5.57578 0.341309H28.0797C30.6639 0.341309 32.7681 2.44543 32.7681 5.02963V16.3941C32.7681 16.9117 32.348 17.3318 31.8304 17.3318C31.3128 17.3318 30.8927 16.9117 30.8927 16.3941V5.02963C30.8927 3.47874 29.6306 2.21664 28.0797 2.21664H5.57578C4.02488 2.21664 2.76278 3.47874 2.76278 5.02963V35.0349C2.76278 36.5858 4.02488 37.8479 5.57578 37.8479H18.7031C19.2207 37.8479 19.6408 38.268 19.6408 38.7856C19.6408 39.3032 19.2207 39.7232 18.7031 39.7232Z" fill="#17BAB5"/>
<path d="M33.7058 45.3487C26.9846 45.3487 21.5161 39.8802 21.5161 33.159C21.5161 26.4378 26.9846 20.9694 33.7058 20.9694C40.4269 20.9694 45.8954 26.4378 45.8954 33.159C45.8954 39.8802 40.4269 45.3487 33.7058 45.3487ZM33.7058 22.8447C28.0179 22.8447 23.3914 27.4711 23.3914 33.159C23.3914 38.8469 28.0179 43.4733 33.7058 43.4733C39.3936 43.4733 44.0201 38.8469 44.0201 33.159C44.0201 27.4711 39.3936 22.8447 33.7058 22.8447Z" fill="#17BAB5"/>
<path d="M31.8304 37.848C31.5829 37.848 31.3428 37.7486 31.1665 37.5742L27.4159 33.8235C27.0502 33.4579 27.0502 32.8634 27.4159 32.4977C27.7816 32.132 28.376 32.132 28.7417 32.4977L31.7835 35.5395L37.6871 28.792C38.0284 28.4001 38.621 28.3607 39.011 28.7039C39.4011 29.0452 39.4405 29.6378 39.0992 30.0279L32.5355 37.5292C32.3649 37.7242 32.1192 37.8405 31.8604 37.848C31.851 37.848 31.8398 37.848 31.8304 37.848Z" fill="#17BAB5"/>
</g>
<defs>
<clipPath id="clip0_1973_210">
<rect width="45.0079" height="45.0079" fill="white" transform="translate(0.887451 0.340576)"/>
</clipPath>
</defs>
</svg>
